<?xml version="1.0" standalone="no"?>
<!DOCTYPE svg PUBLIC "-//W3C//DTD SVG 20010904//EN"
 "http://www.w3.org/TR/2001/REC-SVG-20010904/DTD/svg10.dtd">
<svg version="1.0" xmlns="http://www.w3.org/2000/svg"
 width="480.000000pt" height="480.000000pt" viewBox="0 0 480.000000 480.000000"
 preserveAspectRatio="xMidYMid meet">
<metadata>
Created by potrace 1.14, written by Peter Selinger 2001-2017
</metadata>
<g transform="translate(0.000000,480.000000) scale(0.100000,-0.100000)"
fill="#000000" stroke="none">
<path d="M0 2400 l0 -2400 2400 0 2400 0 0 195 0 195 -36 0 c-20 0 -58 11 -86
25 -52 26 -92 32 -103 15 -3 -5 -1 -10 4 -10 6 0 11 -4 11 -10 0 -5 -7 -10
-15 -10 -14 0 -19 11 -16 37 2 15 -40 18 -54 4 -6 -5 -31 -12 -56 -15 -41 -6
-47 -5 -52 14 -4 15 -10 18 -24 13 -10 -3 -21 -11 -25 -17 -6 -7 -10 -8 -15
-1 -9 12 -152 13 -170 2 -6 -4 -15 -2 -19 4 -5 8 -13 4 -25 -12 -12 -15 -22
-20 -26 -13 -9 11 -65 12 -100 0 -14 -4 -31 -1 -48 10 -15 10 -25 12 -25 5 0
-7 -21 -11 -55 -11 -44 0 -56 4 -65 20 -6 11 -15 18 -21 15 -5 -4 -21 3 -34
14 -16 12 -22 22 -15 26 6 4 8 15 5 25 -3 11 0 20 10 24 19 7 19 40 0 70 -14
21 -14 25 0 36 9 8 13 22 9 39 -4 18 -3 22 4 13 7 -11 10 -11 15 2 4 9 2 16
-3 16 -6 0 -10 4 -10 10 0 5 7 7 15 4 11 -5 15 2 15 26 0 24 -4 31 -15 26 -27
-10 -16 20 12 33 21 10 24 14 13 21 -11 7 -7 10 13 15 15 4 27 12 27 17 0 6 8
17 18 24 16 13 16 15 0 27 -15 12 -13 16 19 42 30 23 45 28 92 28 31 0 50 2
44 4 -17 6 -16 29 1 56 16 24 38 125 37 171 0 16 -7 36 -16 46 -8 9 -15 28
-15 43 0 14 -8 32 -18 39 -9 7 -25 25 -35 40 -10 16 -22 28 -28 28 -25 0 -39
30 -39 83 0 36 -5 59 -15 67 -8 7 -15 18 -15 26 0 7 -8 17 -17 22 -13 8 -16
23 -15 71 1 51 -2 64 -20 81 -12 11 -25 20 -28 20 -4 0 -13 11 -20 25 -7 14
-19 25 -26 25 -6 0 -15 16 -18 35 -4 20 -11 33 -17 30 -5 -4 -14 7 -20 23 -6
17 -17 33 -25 36 -8 3 -14 17 -14 32 0 27 0 27 -22 8 -21 -19 -21 -19 -14 6 4
14 8 32 9 40 3 21 -41 25 -63 5 -16 -15 -19 -15 -34 0 -9 9 -13 21 -10 26 3 6
-3 13 -15 16 -12 3 -21 9 -21 14 0 5 -8 18 -17 29 -13 15 -30 20 -68 20 -58 0
-75 12 -75 52 0 41 24 81 57 98 15 8 36 21 47 30 13 11 41 15 100 15 l81 0 3
39 c7 84 -29 117 -63 58 -35 -58 -70 -72 -194 -76 -104 -3 -114 -2 -118 15 -6
21 -9 22 -70 19 -25 -1 -43 3 -43 9 0 6 7 11 15 11 8 0 24 9 35 20 11 11 30
20 42 20 22 0 23 4 24 85 0 64 -3 85 -13 85 -18 0 -16 29 2 36 23 9 18 34 -7
35 -16 1 -18 3 -7 6 10 2 19 13 22 23 5 20 20 28 92 49 22 7 49 16 60 21 11 4
28 11 38 14 9 3 17 14 17 25 0 20 32 37 50 26 5 -3 10 -2 10 3 0 5 18 28 40
53 22 24 40 53 40 64 0 22 -13 47 -24 46 -3 -1 -23 -1 -43 -1 l-36 0 21 23
c12 13 22 33 22 46 0 19 -5 22 -29 19 -16 -1 -36 4 -45 11 -13 11 -17 11 -22
-3 -4 -10 -18 -16 -35 -16 -19 0 -29 -5 -29 -15 0 -18 -12 -19 -28 -3 -9 9
-12 8 -12 -5 0 -9 -6 -17 -12 -17 -7 0 -23 -3 -35 -6 -17 -5 -23 -2 -23 10 0
9 7 19 15 22 11 5 13 10 5 19 -15 18 -2 45 26 56 16 6 24 16 24 33 0 13 6 26
14 29 8 3 17 19 21 35 6 28 74 102 93 102 6 0 18 12 27 28 22 33 51 62 63 62
6 0 18 12 28 28 9 15 25 33 35 39 9 7 20 24 23 38 4 14 10 25 15 25 5 0 22 24
39 53 16 28 44 65 62 81 29 25 35 27 56 16 13 -7 28 -26 34 -43 16 -47 13
-189 -6 -225 -8 -18 -13 -36 -10 -41 5 -8 -30 -126 -44 -146 -11 -15 4 -60 20
-61 8 -1 25 -2 38 -2 26 -2 29 -20 5 -28 -109 -36 -135 -66 -68 -78 32 -6 35
-10 35 -43 0 -24 -8 -45 -22 -60 l-22 -23 32 -33 c18 -18 29 -37 25 -41 -5 -4
-9 -17 -10 -29 -5 -48 -11 -85 -26 -152 -8 -39 -13 -92 -10 -117 6 -48 14 -57
152 -164 44 -35 93 -87 100 -108 4 -12 13 -55 20 -96 7 -41 18 -88 26 -105 7
-16 20 -46 29 -66 8 -20 27 -44 41 -55 14 -10 25 -27 25 -37 0 -10 12 -30 26
-44 16 -16 28 -42 31 -65 3 -21 9 -38 12 -38 4 0 8 -11 9 -25 1 -14 8 -35 16
-48 8 -12 22 -42 32 -67 10 -25 30 -65 45 -90 14 -25 32 -62 39 -82 6 -21 16
-38 21 -38 5 0 9 -37 9 -82 0 -46 5 -101 11 -123 31 -124 49 -263 53 -410 4
-137 12 -207 26 -240 8 -19 16 -59 26 -135 3 -19 10 -37 15 -41 6 -3 69 -7
140 -7 l129 -2 0 2170 0 2170 -2400 0 -2400 0 0 -2400z m1254 1738 c22 -6 46
-15 51 -19 23 -17 135 -69 148 -69 12 0 67 -53 67 -65 0 -2 -7 -2 -16 2 -12 4
-15 0 -12 -18 2 -13 8 -23 14 -22 6 1 31 -22 55 -52 28 -35 56 -58 79 -66 19
-6 44 -22 54 -37 l19 -25 -27 -24 c-15 -12 -32 -23 -39 -23 -7 0 -36 -25 -66
-55 -29 -30 -62 -55 -72 -55 -11 0 -19 -7 -19 -15 0 -8 -3 -15 -7 -15 -15 0
-38 20 -38 32 0 7 -13 19 -28 26 -16 8 -31 21 -35 30 -3 10 -20 31 -36 49
-104 107 -171 230 -201 366 -14 65 17 81 109 55z m566 -303 c0 -8 -7 -15 -15
-15 -8 0 -15 7 -15 15 0 8 7 15 15 15 8 0 15 -7 15 -15z m507 -782 c-4 -56 4
-66 25 -33 7 11 16 20 20 20 5 0 8 -9 8 -20 0 -11 5 -20 11 -20 6 0 9 -9 6
-20 -3 -11 -1 -23 4 -26 12 -7 11 -25 -1 -44 -9 -13 -13 -11 -29 10 -23 28
-42 19 -23 -11 16 -25 7 -56 -17 -64 -15 -4 -17 -14 -13 -63 2 -34 11 -68 23
-84 10 -15 19 -32 19 -38 0 -21 45 -99 58 -100 6 0 12 -4 12 -9 0 -7 51 -31
65 -31 2 0 5 9 8 20 3 11 14 20 24 20 10 0 24 5 30 11 7 7 12 6 16 -5 4 -9 2
-16 -3 -16 -18 0 -11 -18 9 -23 18 -4 38 -68 27 -86 -3 -5 -28 -11 -56 -15
-27 -4 -50 -10 -50 -15 0 -5 -20 -6 -45 -4 -29 4 -56 0 -77 -10 -60 -28 -100
-31 -125 -8 -23 22 -93 30 -93 11 0 -12 -118 -11 -125 0 -3 5 -1 20 5 34 11
29 1 96 -15 99 -5 1 -12 -13 -16 -31 -4 -18 -15 -42 -24 -52 -33 -37 -105 -17
-89 24 5 13 0 16 -25 16 -31 0 -43 14 -19 22 9 3 8 10 -5 23 -17 17 -19 17
-41 -5 -14 -12 -26 -17 -30 -11 -4 5 -2 12 4 16 5 3 10 17 10 30 0 15 7 26 21
30 17 6 18 9 8 16 -11 6 -10 9 4 15 9 3 14 10 11 15 -3 5 2 6 11 3 13 -5 15
-2 10 17 -4 17 0 31 14 46 11 11 17 24 13 27 -3 4 5 39 17 79 13 40 26 78 28
86 2 7 10 11 17 8 8 -3 20 1 26 9 7 8 20 14 30 14 10 0 23 7 30 15 7 8 25 15
41 15 22 0 29 5 29 20 0 11 7 21 15 22 8 0 21 1 28 2 6 1 11 -7 9 -18 -2 -10
1 -15 7 -12 5 4 12 2 16 -4 10 -15 35 -12 35 5 0 8 9 15 20 15 26 0 35 20 50
115 l14 80 18 -40 c13 -28 17 -56 15 -92z m198 -473 c3 -5 -1 -10 -10 -10 -9
0 -13 5 -10 10 3 6 8 10 10 10 2 0 7 -4 10 -10z m459 -88 c11 6 22 6 32 -2 24
-21 16 -37 -23 -43 -21 -3 -46 -8 -55 -12 -13 -5 -20 -1 -27 16 -5 13 -10 20
-10 16 -1 -5 -6 -5 -12 -2 -19 13 23 33 51 25 15 -4 34 -3 44 2z m76 -43 c0
-5 -4 -9 -10 -9 -5 0 -10 7 -10 16 0 8 5 12 10 9 6 -3 10 -10 10 -16z m697
-661 c-3 -8 -6 -5 -6 6 -1 11 2 17 5 13 3 -3 4 -12 1 -19z m-1537 -154 c0 -9
-12 -14 -34 -14 -28 0 -33 3 -29 18 3 14 12 17 34 14 16 -2 29 -10 29 -18z
m-100 -8 c0 -3 -4 -8 -10 -11 -5 -3 -10 -1 -10 4 0 6 5 11 10 11 6 0 10 -2 10
-4z m-34 -40 c8 -8 11 -21 8 -29 -3 -8 -1 -18 4 -21 11 -6 4 -54 -9 -62 -5 -3
-10 15 -10 40 -2 55 -2 58 -12 74 -11 16 1 15 19 -2z m98 -3 c4 -5 29 -9 54
-9 58 -2 97 -9 151 -28 23 -7 43 -10 46 -6 8 12 118 -1 132 -16 7 -6 15 -30
19 -52 5 -35 3 -43 -20 -63 -14 -12 -26 -28 -26 -34 0 -11 -61 -45 -81 -45 -6
0 -22 -9 -36 -20 -18 -14 -29 -17 -38 -10 -7 6 -19 8 -28 4 -9 -3 -32 2 -51
11 -20 10 -45 15 -55 12 -12 -3 -27 3 -37 14 -10 11 -12 19 -6 19 7 0 12 9 12
20 0 11 -4 20 -10 20 -5 0 -10 9 -10 20 0 11 -4 20 -10 20 -5 0 -10 18 -10 40
0 22 -4 40 -10 40 -5 0 -7 6 -4 14 3 7 -2 20 -10 29 -9 9 -16 18 -16 21 0 9
35 7 44 -1z m544 -301 c8 -6 2 -9 -18 -9 -16 0 -30 4 -30 9 0 10 31 10 48 0z
m126 -177 c3 -9 11 -15 18 -14 24 5 57 -12 63 -32 7 -20 21 -25 27 -10 2 6 18
5 40 -2 36 -11 37 -13 31 -49 -4 -29 -2 -38 8 -38 8 0 20 -9 27 -21 11 -17 11
-24 -1 -37 -8 -10 -17 -25 -21 -36 -5 -15 -9 -16 -21 -6 -13 11 -20 9 -38 -7
-17 -15 -34 -19 -77 -17 -30 2 -56 8 -58 14 -2 6 -17 8 -38 4 -27 -5 -34 -3
-34 10 0 11 -9 16 -30 16 -33 0 -38 11 -15 30 18 15 20 30 3 30 -15 -1 -49
-68 -38 -75 16 -10 -48 -65 -75 -65 -15 0 -25 3 -23 8 3 4 11 22 18 40 8 17
20 32 27 32 7 0 10 7 6 16 -5 13 -7 13 -14 2 -6 -8 -7 0 -3 19 6 28 3 33 -20
39 -14 3 -33 4 -41 0 -8 -3 -15 -1 -15 4 0 6 -5 10 -11 10 -5 0 -7 -5 -4 -10
8 -13 -13 -40 -31 -40 -8 0 -14 9 -14 21 0 13 -4 18 -12 13 -9 -5 -9 -2 1 9
10 12 10 21 3 30 -6 7 -10 23 -9 36 1 20 5 22 37 16 19 -4 37 -11 38 -16 6
-14 22 -11 22 5 0 8 -8 17 -17 21 -14 5 -7 10 27 21 24 7 47 10 50 5 3 -4 21
-11 41 -15 28 -5 47 0 90 23 65 34 75 36 83 16z m186 -15 c0 -5 -9 -10 -20
-10 -11 0 -20 5 -20 10 0 6 9 10 20 10 11 0 20 -4 20 -10z m-566 -62 c-9 -14
-23 2 -17 18 4 12 8 13 14 3 4 -7 5 -17 3 -21z m-357 -63 c0 -17 0 -17 -21 -9
-22 8 -20 24 2 24 10 0 19 -7 19 -15z m298 -45 c3 -5 1 -10 -4 -10 -6 0 -11 5
-11 10 0 6 2 10 4 10 3 0 8 -4 11 -10z m65 -20 c0 -5 -7 -10 -16 -10 -8 0 -12
5 -9 10 3 6 10 10 16 10 5 0 9 -4 9 -10z m-14 -19 c7 -1 15 -17 18 -36 3 -19
9 -51 12 -70 3 -20 15 -42 26 -49 18 -13 18 -14 -2 -19 -13 -3 -20 -12 -18
-23 4 -21 -48 -42 -64 -26 -5 5 -10 37 -10 71 0 66 -11 83 -45 70 -26 -9 -27
-16 -13 -53 7 -19 6 -26 -3 -26 -6 -1 0 -8 16 -16 36 -19 34 -31 -7 -48 -19
-8 -37 -23 -40 -33 -7 -21 -43 -28 -63 -11 -10 8 -19 6 -34 -7 -17 -16 -24
-17 -53 -7 -48 18 -57 15 -50 -12 8 -32 -24 -63 -53 -53 -5 1 -7 6 -5 11 2 5
-1 12 -6 15 -5 3 -13 21 -17 39 -6 28 -4 32 14 32 11 0 25 6 31 13 40 47 50
62 50 72 0 7 8 15 18 18 11 2 22 17 25 36 4 18 13 31 22 31 8 0 15 5 15 12 0
21 12 0 20 -35 5 -22 4 -39 -3 -46 -6 -6 -8 -13 -4 -17 8 -8 57 45 68 74 5 13
9 38 9 56 0 18 3 36 7 40 4 4 35 5 68 2 33 -3 65 -5 71 -5z m171 -105 c1 -1 4
-13 8 -27 6 -24 4 -26 -27 -22 -70 8 -78 12 -78 38 0 14 5 25 11 25 5 0 7 5 4
10 -5 8 56 -10 82 -24z m363 -26 c0 -11 -4 -20 -10 -20 -5 0 -10 9 -10 20 0
11 5 20 10 20 6 0 10 -9 10 -20z m44 -62 c0 -24 4 -53 9 -65 6 -13 5 -32 -1
-50 -9 -25 -11 -25 -11 -5 -1 12 -6 22 -13 22 -9 0 -9 3 0 12 18 18 15 28 -10
28 -12 0 -18 3 -15 6 3 4 0 16 -8 28 -25 34 -19 54 18 59 17 2 32 5 32 5 0 1
0 -17 -1 -40z m380 -13 c3 -8 11 -14 18 -13 6 2 14 -5 16 -16 2 -11 0 -16 -7
-12 -6 4 -11 -1 -12 -11 -1 -17 -2 -17 -6 0 -3 12 -11 16 -23 12 -13 -4 -19 1
-22 19 -3 14 -3 28 0 31 10 10 30 5 36 -10z m-622 -27 c19 -9 28 -22 30 -43 2
-20 11 -33 26 -40 13 -6 22 -19 22 -32 0 -12 2 -27 3 -35 2 -7 2 -10 0 -6 -6
11 -43 -15 -43 -30 0 -34 -114 -30 -127 5 -3 7 -13 13 -23 13 -13 0 -17 5 -13
20 3 11 3 25 0 32 -2 7 -4 17 -3 22 0 5 -10 13 -22 17 -29 11 -25 26 13 47 17
9 32 19 35 22 10 11 55 29 65 25 6 -2 22 -9 37 -17z m-322 -57 c0 -5 -7 -11
-15 -15 -8 -3 -14 -9 -13 -13 3 -9 -12 -29 -46 -63 -22 -22 -86 -28 -86 -8 0
12 60 72 97 95 21 14 63 17 63 4z m970 -33 c0 -9 -13 -20 -29 -26 -28 -10 -29
-9 -29 24 0 30 3 34 19 29 12 -4 19 -2 19 7 0 20 20 -13 20 -34z m295 12 c-6
-9 -9 -9 -16 1 -10 17 0 34 13 21 6 -6 7 -16 3 -22z m-625 -46 c0 -8 -4 -12
-10 -9 -5 3 -10 10 -10 16 0 5 5 9 10 9 6 0 10 -7 10 -16z m283 -7 c4 3 7 1 7
-5 0 -18 -27 -14 -34 4 -5 13 -4 14 7 6 8 -7 17 -9 20 -5z m-202 -41 c8 -4 28
-2 42 3 28 11 57 5 57 -11 0 -5 -9 -6 -20 -3 -22 7 -28 -10 -7 -19 6 -2 -5 -3
-27 -1 -37 4 -66 -11 -66 -34 0 -6 -9 -11 -20 -11 -24 0 -25 13 -4 45 9 13 13
28 10 34 -6 10 8 9 35 -3z m492 -5 c-4 -3 -11 -10 -15 -15 -4 -4 -6 1 -5 12 1
12 6 18 15 15 7 -3 10 -9 5 -12z m-333 -1 c0 -5 -2 -10 -4 -10 -3 0 -8 5 -11
10 -3 6 -1 10 4 10 6 0 11 -4 11 -10z m100 -32 c0 -6 -7 -7 -16 -4 -8 3 -26
-2 -40 -11 -18 -11 -28 -13 -36 -5 -8 8 -4 13 15 17 14 4 31 13 38 21 9 11 15
11 25 3 8 -6 14 -16 14 -21z m-1140 12 c0 -5 -4 -10 -10 -10 -5 0 -10 5 -10
10 0 6 5 10 10 10 6 0 10 -4 10 -10z m720 -30 c0 -17 -7 -20 -40 -20 -45 0
-52 11 -17 28 36 17 57 14 57 -8z m665 10 c-3 -5 -16 -10 -28 -10 -18 0 -19 2
-7 10 20 13 43 13 35 0z m55 0 c0 -5 -4 -10 -9 -10 -6 0 -13 5 -16 10 -3 6 1
10 9 10 9 0 16 -4 16 -10z m-535 -10 c3 -5 -1 -10 -9 -10 -9 0 -16 5 -16 10 0
6 4 10 9 10 6 0 13 -4 16 -10z m-348 -6 c-3 -3 -12 -4 -19 -1 -8 3 -5 6 6 6
11 1 17 -2 13 -5z"/>
<path d="M2400 2470 c0 -5 5 -10 10 -10 6 0 10 5 10 10 0 6 -4 10 -10 10 -5 0
-10 -4 -10 -10z"/>
<path d="M2418 2433 c7 -3 16 -2 19 1 4 3 -2 6 -13 5 -11 0 -14 -3 -6 -6z"/>
<path d="M2240 1550 c0 -5 5 -10 10 -10 6 0 10 5 10 10 0 6 -4 10 -10 10 -5 0
-10 -4 -10 -10z"/>
<path d="M2330 1530 c0 -5 5 -10 10 -10 6 0 10 -7 10 -15 0 -8 5 -15 10 -15
15 0 12 19 -4 36 -17 16 -26 18 -26 4z"/>
<path d="M2510 1014 c0 -9 7 -14 17 -12 25 5 28 28 4 28 -12 0 -21 -6 -21 -16z"/>
<path d="M3031 924 c0 -11 3 -14 6 -6 3 7 2 16 -1 19 -3 4 -6 -2 -5 -13z"/>
<path d="M2908 853 c6 -2 18 -2 25 0 6 3 1 5 -13 5 -14 0 -19 -2 -12 -5z"/>
<path d="M2350 870 c0 -6 7 -13 15 -17 24 -9 27 1 5 15 -13 8 -20 8 -20 2z"/>
<path d="M2690 600 c0 -5 5 -10 11 -10 6 0 9 -6 6 -14 -6 -14 21 -32 31 -21 3
3 0 5 -8 5 -10 0 -10 3 1 16 10 13 10 17 -2 25 -19 12 -39 11 -39 -1z"/>
<path d="M3711 3411 c-9 -17 -10 -26 -2 -34 16 -16 29 4 21 33 l-6 25 -13 -24z"/>
<path d="M3700 3345 c0 -8 -4 -15 -10 -15 -5 0 -10 -6 -10 -14 0 -8 -8 -17
-17 -21 -17 -7 -16 -8 2 -15 17 -7 16 -9 -10 -10 -29 -2 -29 -2 -5 -9 32 -10
42 -4 35 18 -3 10 1 24 10 31 9 7 21 22 26 32 7 14 6 18 -6 18 -8 0 -15 -7
-15 -15z"/>
<path d="M3602 3168 c3 -7 22 -14 44 -16 37 -2 38 -1 20 13 -24 18 -69 20 -64
3z"/>
<path d="M3280 3160 c0 -5 5 -10 10 -10 6 0 10 -7 10 -15 0 -26 15 -16 16 10
2 18 -3 25 -17 25 -10 0 -19 -4 -19 -10z"/>
<path d="M3779 549 c-2 -28 3 -54 13 -64 6 -7 7 4 2 30 -7 43 -13 57 -15 34z"/>
<path d="M4465 450 c3 -5 8 -10 11 -10 2 0 4 5 4 10 0 6 -5 10 -11 10 -5 0 -7
-4 -4 -10z"/>
</g>
</svg>
